<svg xmlns="http://www.w3.org/2000/svg" width="148.696" height="28"><defs><clipPath id="a"><path data-name="Rectangle 11" fill="none" d="M0 0h148.696v28H0z"/></clipPath></defs><g data-name="DLR Logo" clip-path="url(#a)" fill="#fff"><path data-name="Path 5" d="M34.135 11.13h2.923a3.915 3.915 0 0 1 4.174 3.9v.023a3.934 3.934 0 0 1-4.174 3.93h-2.923Zm2.923 6.6a2.55 2.55 0 0 0 2.72-2.644v-.024a2.573 2.573 0 0 0-2.72-2.67h-1.547v5.338Zm6.729 1.26h1.378v-7.86h-1.378Zm4.1-3.906a3.894 3.894 0 0 0 4.073 4.035 4.979 4.979 0 0 0 3.27-1.222v-3.3h-3.336v1.2h2v1.47a3.226 3.226 0 0 1-1.9.595 2.625 2.625 0 0 1-2.67-2.806v-.023a2.656 2.656 0 0 1 2.55-2.769 3.058 3.058 0 0 1 2.193.839l.877-1.043a4.231 4.231 0 0 0-3.016-1.066 4 4 0 0 0-4.049 4.062v.024m10.484 3.91h1.38v-7.86h-1.38Zm6.526 0h1.384v-6.579h2.5V11.13h-6.369v1.28h2.489Zm8.082-7.913h1.281l3.451 7.913H76.25l-.8-1.9h-3.716l-.8 1.9h-1.412Zm1.974 4.793-1.352-3.142-1.352 3.142Zm5.206 3.12h5.5v-1.264h-4.125v-6.6h-1.38Zm12.851-7.857h3.5a3.157 3.157 0 0 1 2.261.787 2.368 2.368 0 0 1 .647 1.693v.023a2.356 2.356 0 0 1-1.871 2.38l2.117 2.974h-1.625l-1.924-2.738h-1.725v2.738h-1.38Zm3.4 3.894c.987 0 1.614-.516 1.614-1.312v-.025c0-.841-.6-1.3-1.626-1.3h-2v2.636Zm5.601 3.963h5.87v-1.238h-4.494v-2.111h3.929v-1.232h-3.929v-2.043h4.434V11.13h-5.81Zm11.394-7.913h1.276l3.453 7.913h-1.459l-.795-1.9h-3.708l-.806 1.9h-1.418Zm1.974 4.793-1.356-3.142-1.347 3.142Zm5.057 3.12h5.5v-1.264h-4.132v-6.6h-1.372Zm9.237 0h1.389v-6.579h2.489V11.13h-6.37v1.28h2.489Zm9.923 0h1.39v-3.135l3.114-4.724h-1.579l-2.218 3.481-2.2-3.481h-1.622l3.12 4.756Z"/><path data-name="Path 6" d="M21.489 3.958v2.317l1.684.493V9.09l-1.686-.336V6.761l-1.686-.4V3.3l-5.065-1.98v4.662l-1.688-.41V.659L11.359 0v28l1.688-.686v-3.571l1.688-.513v3.4l10.13-4.111V5.278Zm-5.068.833 1.689.495v2.8l-1.689-.341ZM13.047 8.7l1.688.25v2.806l-1.688-.1Zm1.688 11.438-1.688.342v-3.071l1.688-.191Zm3.376.464-1.69.398v-5.348l-1.687.113v-2.6l1.687.03v2.454l1.689-.11Zm0-10.007 1.689.18v2.49l-1.689-.035Zm3.378 10.587-1.689.514V19.1l1.689-.342Zm1.689-2.759-1.689.344v-6.8l1.689.115Z"/><path data-name="Path 7" d="M0 5.367v16.978l9.843 5.183V.274Z"/><path data-name="Path 8" d="M146.814 13.9a1.9 1.9 0 1 1 1.882-1.9 1.867 1.867 0 0 1-1.882 1.9m0-3.5a1.6 1.6 0 1 0 1.559 1.6 1.557 1.557 0 0 0-1.559-1.6m-.3 1.872v.707h-.437v-2h.873a.627.627 0 0 1 .707.655.569.569 0 0 1-.437.593l.51.749h-.489l-.468-.707Zm.416-.915h-.416v.543h.416a.278.278 0 1 0 0-.551"/></g></svg>